<mxfile host="app.diagrams.net" modified="2020-09-02T21:11:49.074Z" agent="5.0 (Macintosh; Intel Mac OS X 10_15_4) AppleWebKit/605.1.15 (KHTML, like Gecko) Version/13.1 Safari/605.1.15" etag="d4wvaLgx1_kPRoEnV-no" version="13.6.6" type="github">
  <diagram id="9Rsc9_UJ6P23GNXQG3Jb" name="Page-1">
    <mxGraphModel dx="819" dy="606" grid="1" gridSize="10" guides="1" tooltips="1" connect="1" arrows="1" fold="1" page="1" pageScale="1" pageWidth="1169" pageHeight="827" math="0" shadow="0">
      <root>
        <mxCell id="0" />
        <mxCell id="1" parent="0" />
        <mxCell id="qIHOA3ObpepgUHv2rp64-12" style="edgeStyle=orthogonalEdgeStyle;rounded=0;orthogonalLoop=1;jettySize=auto;html=1;entryX=0;entryY=0.75;entryDx=0;entryDy=0;" edge="1" parent="1" source="qIHOA3ObpepgUHv2rp64-2" target="qIHOA3ObpepgUHv2rp64-11">
          <mxGeometry relative="1" as="geometry">
            <Array as="points">
              <mxPoint x="170" y="120" />
              <mxPoint x="170" y="145" />
            </Array>
          </mxGeometry>
        </mxCell>
        <mxCell id="qIHOA3ObpepgUHv2rp64-13" style="edgeStyle=orthogonalEdgeStyle;rounded=0;orthogonalLoop=1;jettySize=auto;html=1;entryX=0;entryY=0.5;entryDx=0;entryDy=0;" edge="1" parent="1" source="qIHOA3ObpepgUHv2rp64-2" target="qIHOA3ObpepgUHv2rp64-10">
          <mxGeometry relative="1" as="geometry" />
        </mxCell>
        <mxCell id="qIHOA3ObpepgUHv2rp64-2" value="Ciutadà" style="shape=umlActor;verticalLabelPosition=bottom;verticalAlign=top;html=1;" vertex="1" parent="1">
          <mxGeometry x="80" y="80" width="30" height="60" as="geometry" />
        </mxCell>
        <mxCell id="qIHOA3ObpepgUHv2rp64-19" style="edgeStyle=orthogonalEdgeStyle;rounded=0;orthogonalLoop=1;jettySize=auto;html=1;entryX=0;entryY=0.5;entryDx=0;entryDy=0;" edge="1" parent="1" source="qIHOA3ObpepgUHv2rp64-3" target="qIHOA3ObpepgUHv2rp64-15">
          <mxGeometry relative="1" as="geometry" />
        </mxCell>
        <mxCell id="qIHOA3ObpepgUHv2rp64-3" value="Operari" style="shape=umlActor;verticalLabelPosition=bottom;verticalAlign=top;html=1;" vertex="1" parent="1">
          <mxGeometry x="80" y="255" width="30" height="60" as="geometry" />
        </mxCell>
        <mxCell id="qIHOA3ObpepgUHv2rp64-22" style="edgeStyle=orthogonalEdgeStyle;rounded=0;orthogonalLoop=1;jettySize=auto;html=1;entryX=0;entryY=0.5;entryDx=0;entryDy=0;" edge="1" parent="1" source="qIHOA3ObpepgUHv2rp64-6" target="qIHOA3ObpepgUHv2rp64-16">
          <mxGeometry relative="1" as="geometry" />
        </mxCell>
        <mxCell id="qIHOA3ObpepgUHv2rp64-6" value="Admin" style="shape=umlActor;verticalLabelPosition=bottom;verticalAlign=top;html=1;" vertex="1" parent="1">
          <mxGeometry x="80" y="560" width="30" height="60" as="geometry" />
        </mxCell>
        <mxCell id="qIHOA3ObpepgUHv2rp64-21" style="edgeStyle=orthogonalEdgeStyle;rounded=0;orthogonalLoop=1;jettySize=auto;html=1;entryX=0;entryY=0.5;entryDx=0;entryDy=0;" edge="1" parent="1" source="qIHOA3ObpepgUHv2rp64-5" target="qIHOA3ObpepgUHv2rp64-14">
          <mxGeometry relative="1" as="geometry" />
        </mxCell>
        <mxCell id="qIHOA3ObpepgUHv2rp64-5" value="Técnic" style="shape=umlActor;verticalLabelPosition=bottom;verticalAlign=top;html=1;" vertex="1" parent="1">
          <mxGeometry x="80" y="400" width="30" height="60" as="geometry" />
        </mxCell>
        <mxCell id="qIHOA3ObpepgUHv2rp64-10" value="&lt;p style=&quot;margin: 0px ; margin-top: 4px ; text-align: center ; text-decoration: underline&quot;&gt;&lt;b&gt;Espai Ciutadà&lt;/b&gt;&lt;/p&gt;&lt;hr&gt;&lt;p style=&quot;margin: 0px ; margin-left: 8px&quot;&gt;consulta()&lt;br&gt;abonaments()&lt;br&gt;....&lt;/p&gt;" style="verticalAlign=top;align=left;overflow=fill;fontSize=12;fontFamily=Helvetica;html=1;" vertex="1" parent="1">
          <mxGeometry x="240" y="30" width="160" height="90" as="geometry" />
        </mxCell>
        <mxCell id="qIHOA3ObpepgUHv2rp64-11" value="&lt;p style=&quot;margin: 0px ; margin-top: 4px ; text-align: center ; text-decoration: underline&quot;&gt;&lt;b&gt;Aparador Virtual&lt;/b&gt;&lt;/p&gt;&lt;hr&gt;&lt;p style=&quot;margin: 0px ; margin-left: 8px&quot;&gt;consulta()&lt;br&gt;&lt;br&gt;&lt;/p&gt;" style="verticalAlign=top;align=left;overflow=fill;fontSize=12;fontFamily=Helvetica;html=1;labelBorderColor=none;" vertex="1" parent="1">
          <mxGeometry x="480" y="100" width="160" height="60" as="geometry" />
        </mxCell>
        <mxCell id="qIHOA3ObpepgUHv2rp64-14" value="&lt;p style=&quot;margin: 0px ; margin-top: 4px ; text-align: center ; text-decoration: underline&quot;&gt;&lt;b&gt;Intranet&lt;/b&gt;&lt;/p&gt;&lt;hr&gt;&lt;p style=&quot;margin: 0px ; margin-left: 8px&quot;&gt;login()&lt;br&gt;altaUsuari()&lt;br&gt;....&lt;/p&gt;" style="verticalAlign=top;align=left;overflow=fill;fontSize=12;fontFamily=Helvetica;html=1;" vertex="1" parent="1">
          <mxGeometry x="240" y="385" width="160" height="90" as="geometry" />
        </mxCell>
        <mxCell id="qIHOA3ObpepgUHv2rp64-23" style="edgeStyle=orthogonalEdgeStyle;rounded=0;orthogonalLoop=1;jettySize=auto;html=1;entryX=0;entryY=0.5;entryDx=0;entryDy=0;" edge="1" parent="1" source="qIHOA3ObpepgUHv2rp64-15" target="qIHOA3ObpepgUHv2rp64-17">
          <mxGeometry relative="1" as="geometry" />
        </mxCell>
        <mxCell id="qIHOA3ObpepgUHv2rp64-15" value="&lt;p style=&quot;margin: 0px ; margin-top: 4px ; text-align: center ; text-decoration: underline&quot;&gt;&lt;b&gt;App&lt;/b&gt;&lt;/p&gt;&lt;hr&gt;&lt;p style=&quot;margin: 0px ; margin-left: 8px&quot;&gt;login()&lt;br&gt;entrada()&lt;br&gt;....&lt;/p&gt;" style="verticalAlign=top;align=left;overflow=fill;fontSize=12;fontFamily=Helvetica;html=1;" vertex="1" parent="1">
          <mxGeometry x="240" y="240" width="160" height="90" as="geometry" />
        </mxCell>
        <mxCell id="qIHOA3ObpepgUHv2rp64-16" value="&lt;p style=&quot;margin: 0px ; margin-top: 4px ; text-align: center ; text-decoration: underline&quot;&gt;&lt;b&gt;SysAdmim&lt;/b&gt;&lt;/p&gt;&lt;hr&gt;&lt;p style=&quot;margin: 0px ; margin-left: 8px&quot;&gt;login()&lt;br&gt;altaUsuari()&lt;br&gt;....&lt;/p&gt;" style="verticalAlign=top;align=left;overflow=fill;fontSize=12;fontFamily=Helvetica;html=1;" vertex="1" parent="1">
          <mxGeometry x="240" y="545" width="160" height="90" as="geometry" />
        </mxCell>
        <mxCell id="qIHOA3ObpepgUHv2rp64-17" value="&lt;p style=&quot;margin: 0px ; margin-top: 4px ; text-align: center ; text-decoration: underline&quot;&gt;&lt;b&gt;Devices&lt;/b&gt;&lt;/p&gt;&lt;hr&gt;&lt;p style=&quot;margin: 0px ; margin-left: 8px&quot;&gt;autoconfig()&lt;br&gt;ping()&lt;br&gt;&lt;/p&gt;" style="verticalAlign=top;align=left;overflow=fill;fontSize=12;fontFamily=Helvetica;html=1;" vertex="1" parent="1">
          <mxGeometry x="480" y="180" width="160" height="80" as="geometry" />
        </mxCell>
      </root>
    </mxGraphModel>
  </diagram>
</mxfile>
